<svg xmlns="http://www.w3.org/2000/svg" width="121.035" height="118.853" viewBox="0 0 121.035 118.853">
  <g id="Group_12975" data-name="Group 12975" transform="translate(5150.689 2150)">
    <g id="Group_12874" data-name="Group 12874" transform="translate(-5150.689 -2150)">
      <g id="Group_11677" data-name="Group 11677" transform="translate(0)">
        <path id="Path_5736" data-name="Path 5736" d="M618.257,263.853c-2.064,0-4.146-.1-6.188-.307-2.012-.2-4.034-.5-6.009-.9a60.715,60.715,0,0,1-30.6-16.2,60.087,60.087,0,0,1-7.39-8.795,59.091,59.091,0,0,1-5.58-10.094c-.766-1.779-1.451-3.616-2.035-5.46a58.208,58.208,0,0,1-2.408-11.6,59.235,59.235,0,0,1,0-12.152,58.208,58.208,0,0,1,2.408-11.6c.584-1.844,1.269-3.681,2.035-5.46a59.089,59.089,0,0,1,5.58-10.094,60.1,60.1,0,0,1,7.39-8.8,60.749,60.749,0,0,1,30.6-16.2c1.975-.4,4-.7,6.009-.9,2.042-.2,4.123-.307,6.188-.307s4.146.1,6.188.307c2.012.2,4.034.5,6.009.9a60.721,60.721,0,0,1,30.6,16.2,60.114,60.114,0,0,1,7.39,8.8,59.11,59.11,0,0,1,5.579,10.094c.766,1.779,1.451,3.616,2.035,5.46a58.22,58.22,0,0,1,2.408,11.6,59.258,59.258,0,0,1,0,12.152,58.22,58.22,0,0,1-2.408,11.6c-.584,1.844-1.269,3.681-2.035,5.46a59.111,59.111,0,0,1-5.579,10.094,60.1,60.1,0,0,1-7.39,8.795,60.746,60.746,0,0,1-30.6,16.2c-1.975.4-4,.7-6.009.9C622.4,263.75,620.322,263.853,618.257,263.853Z" transform="translate(-557.74 -145)" fill="#1ca990"/>
        <path id="Path_5737" data-name="Path 5737" d="M795.731,294.8h0a35.514,35.514,0,0,1-4.094-14.432,37.008,37.008,0,0,1,.27-7.392,38.617,38.617,0,0,1,1.719-7.23,40.076,40.076,0,0,1,3.1-6.858,41.165,41.165,0,0,1,4.4-6.277,42.049,42.049,0,0,1,5.638-5.485,43.327,43.327,0,0,1,14.321-7.615,42.044,42.044,0,0,1,7.7-1.607,41.174,41.174,0,0,1,7.666-.141,40.076,40.076,0,0,1,7.418,1.267,38.612,38.612,0,0,1,6.955,2.618,37,37,0,0,1,6.28,3.91,35.57,35.57,0,0,1,13.769,25.9,37,37,0,0,1-.27,7.392,38.622,38.622,0,0,1-1.719,7.23,40.1,40.1,0,0,1-3.1,6.858,41.174,41.174,0,0,1-4.4,6.277,42.052,42.052,0,0,1-5.638,5.485,43.327,43.327,0,0,1-14.32,7.614,42.039,42.039,0,0,1-7.7,1.607,41.186,41.186,0,0,1-7.666.141,40.087,40.087,0,0,1-7.418-1.268,38.624,38.624,0,0,1-6.956-2.618,37.013,37.013,0,0,1-6.279-3.91,35.511,35.511,0,0,1-9.676-11.464Z" transform="translate(-756.429 -223.726)" fill="#2b3332"/>
        <path id="Path_5738" data-name="Path 5738" d="M718.515,556.99a17.237,17.237,0,0,1-3.449-.348,17.013,17.013,0,0,1-6.119-2.575,17.162,17.162,0,0,1-6.2-7.529,17.013,17.013,0,0,1-1-3.212,17.274,17.274,0,0,1,0-6.9,17.018,17.018,0,0,1,2.575-6.119,17.168,17.168,0,0,1,7.529-6.2,17.041,17.041,0,0,1,3.212-1,17.28,17.28,0,0,1,6.9,0,17.01,17.01,0,0,1,6.119,2.575,17.161,17.161,0,0,1,6.2,7.529,17.017,17.017,0,0,1,1,3.212,17.277,17.277,0,0,1,0,6.9,17.017,17.017,0,0,1-2.575,6.119,17.161,17.161,0,0,1-7.529,6.2,17.03,17.03,0,0,1-3.212,1A17.237,17.237,0,0,1,718.515,556.99Z" transform="translate(-679.817 -466.004)" fill="#fff"/>
      </g>
    </g>
  </g>
</svg>
